Coordinates
version=1
nRows=17
nColumns=36
inDegrees=yes

Units are S.I. units (second, meters, Newtons, ...)
If the header above contains a line with 'inDegrees', this indicates whether rotational values are in degrees (yes) or radians (no).

endheader
time	pelvis_tilt	pelvis_list	pelvis_rotation	pelvis_tx	pelvis_ty	pelvis_tz	hip_flexion_r	hip_adduction_r	hip_rotation_r	knee_angle_r	knee_angle_r_beta	ankle_angle_r	subtalar_angle_r	mtp_angle_r	hip_flexion_l	hip_adduction_l	hip_rotation_l	knee_angle_l	knee_angle_l_beta	ankle_angle_l	subtalar_angle_l	mtp_angle_l	lumbar_extension	lumbar_bending	lumbar_rotation	arm_flex_r	arm_add_r	arm_rot_r	elbow_flex_r	pro_sup_r	arm_flex_l	arm_add_l	arm_rot_l	elbow_flex_l	pro_sup_l
      4.20000000	     -0.69273768	     -1.44283838	     -1.41081517	      0.85366811	      0.93237191	     -0.59002152	     -0.04244372	     -0.96396003	     -1.40342376	      8.66088226	      0.15116091	     12.57335676	     -2.97578594	     -7.49999987	     -2.42836243	     -3.54925619	      0.94424838	      0.43777943	      0.00764069	      7.52337803	     -0.68523821	     -7.49999987	     -6.74090949	      3.50049031	     -1.46115011	      4.95255071	     -9.76199093	      6.81669244	     46.17129491	     77.16681503	      3.87955505	     -9.63755308	     17.89427109	    101.84200234	     80.64023387
      4.21666670	     -0.41766287	     -1.51201718	     -1.50019714	      0.85737302	      0.92984316	     -0.58624161	     -0.47044004	     -0.82808214	     -1.21789955	      8.46156551	      0.14768218	     12.70887931	     -2.93457806	     -7.49999987	     -2.83221454	     -3.65994545	      0.88850490	      0.39818113	      0.00694957	      7.58540725	     -0.67587292	     -7.49999987	     -6.78475939	      3.32035492	     -1.43378128	      3.42634472	     -9.21394119	      5.47055604	     42.29093320	     76.82846566	      4.18185102	    -10.05946587	     17.65839283	    103.29235425	     80.72255827
      4.23333330	     -0.20633899	     -1.55178299	     -1.48838151	      0.86454259	      0.93853298	     -0.59020210	     -0.93974981	     -0.75166655	     -1.09992644	      8.19280079	      0.14299135	     12.73645876	     -2.79501617	     -7.49999987	     -3.18095152	     -3.74669149	      0.81064729	      0.35343520	      0.00616861	      7.67144765	     -0.43829722	     -7.49999987	     -6.57450496	      3.19696670	     -1.41710229	      1.06007921	     -8.43872247	      2.94087664	     38.42720876	     74.71260614	      4.30070632	     -9.85835584	     17.79323327	    105.03123152	     79.03607469
      4.25000000	      0.06086852	     -1.61460359	     -1.46051784	      0.86331349	      0.93426113	     -0.59012349	     -1.47499523	     -0.65164666	     -0.92811199	      7.84951910	      0.13699995	     12.67492173	     -2.90447844	     -7.49999987	     -3.60791568	     -3.81776112	      0.79059088	      0.31425508	      0.00548479	      7.77773013	     -0.28771359	     -7.49999987	     -6.58819921	      3.19841580	     -1.45618782	     -0.55991230	     -8.35667148	      1.89811112	     35.18551794	     73.85173766	      5.97475409	    -10.17649010	     18.82739985	    107.32177079	     78.38439975
      4.26666670	      0.09043135	     -1.64597990	     -1.45370746	      0.86247345	      0.92586749	     -0.58949758	     -1.66132635	     -0.59707574	     -0.93129721	      7.66920900	      0.13385295	     12.88057141	     -2.87589972	     -7.49999987	     -3.74492636	     -3.85642304	      0.87563289	      0.29927134	      0.00522327	      7.92222402	     -0.37802466	     -7.49999987	     -6.10094479	      3.16058877	     -1.57332212	     -1.67391656	     -8.04135614	     -0.29760093	     30.13692096	     72.79599326	      8.27432582	    -10.76605924	     19.72822139	    108.98009786	     77.57561214
      4.28333330	      0.43413857	     -1.70601554	     -1.62268244	      0.86183480	      0.92789799	     -0.59029912	     -2.12434719	     -0.52996583	     -0.55649619	      7.55303098	      0.13182526	     12.88803808	     -3.13444369	     -7.49999987	     -4.21487675	     -3.91526043	      0.35981112	      0.28606369	      0.00499275	      8.21718070	      0.18275967	     -7.49999987	     -6.41754473	      3.19933230	     -1.00374970	     -3.90141540	     -8.24182013	     -1.54835232	     27.75045940	     70.88432350	     11.15155996	    -10.97561694	     21.66775543	    110.45247176	     75.57537860
      4.30000000	      0.42061968	     -1.68424906	     -1.51852694	      0.86147948	      0.93018265	     -0.58986680	     -2.20991487	     -0.55409913	     -0.66595837	      7.48979090	      0.13072151	     13.09408397	     -3.02678350	     -7.49999987	     -4.25184461	     -3.90123687	      0.78183625	      0.27548642	      0.00480815	      8.12484240	     -0.28580238	     -7.49999987	     -5.83492125	      3.07454966	     -1.67714008	     -4.08172602	     -7.72160340	     -3.31253410	     22.29840033	     71.25176143	     12.93589512	    -11.15236500	     22.42732937	    112.27524285	     75.86446534
      4.31666670	      0.48385734	     -1.75937173	     -1.47481949	      0.86546458	      0.93035069	     -0.58564837	     -2.43440280	     -0.43255004	     -0.61818535	      7.36498650	      0.12854326	     13.19509733	     -3.10761695	     -7.49999987	     -4.38787774	     -4.01699433	      0.82946032	      0.27065643	      0.00472385	      8.18916350	     -0.27282855	     -7.49999987	     -5.43568146	      3.01053380	     -1.96753229	     -6.39210750	     -8.02799774	     -3.57232675	     20.81879352	     71.31008175	     14.29220277	    -11.08293862	     22.25504571	    114.54459870	     75.98831045
      4.33333330	      0.64466142	     -1.85061725	     -1.65178165	      0.85874621	      0.93400175	     -0.58291294	     -2.59222513	     -0.29658199	     -0.34773564	      7.40032440	      0.12916003	     13.11480275	     -3.18363258	     -7.49999987	     -4.59981615	     -4.16187954	      0.72717976	      0.26340487	      0.00459728	      8.26313974	     -0.38324721	     -7.49999987	     -5.72812994	      2.92626165	     -2.17941624	     -7.23454621	     -7.96331766	     -4.76462095	     18.06359314	     71.46029843	     15.64448327	    -11.74989546	     23.35340213	    117.78178785	     76.38610076
      4.35000000	      1.01488138	     -1.96317044	     -1.79509929	      0.85811645	      0.93446120	     -0.58316511	     -3.02611579	     -0.12477822	     -0.14835030	      7.32137981	      0.12778218	     13.02212749	     -3.35302673	     -7.49999987	     -5.03740888	     -4.31848430	      0.67147954	      0.25687457	      0.00448331	      8.34594900	     -0.24052097	     -7.49999987	     -5.94746714	      2.80983949	     -2.50114142	     -7.31388429	     -7.68674998	     -7.10291695	     15.08043011	     71.24387944	     17.23772629	    -12.43454088	     24.13581768	    119.59782216	     76.21350538
      4.36666670	      0.90718853	     -2.03291681	     -1.98030403	      0.86468008	      0.93062185	     -0.58592887	     -2.92485032	     -0.02780583	     -0.13061096	      7.33443335	      0.12801001	     12.93156216	     -3.40819676	     -7.49999987	     -5.01678362	     -4.40657399	      0.66962598	      0.24959051	      0.00435618	      8.35720067	     -0.37206272	     -7.49999987	     -5.34222697	      2.78314355	     -3.18881319	     -7.86456689	     -7.31971483	    -16.75687264	     13.30440388	     83.51108105	     17.74335696	    -12.45100604	     24.01186873	    122.23813808	     79.15850143
      4.38333330	      1.01512507	     -2.09801253	     -2.17986318	      0.86451656	      0.93473540	     -0.58624227	     -3.08161129	      0.05625889	      0.04221609	      7.28971947	      0.12722961	     12.93054014	     -3.42612351	     -7.49999987	     -5.22830618	     -4.49563991	      0.57477251	      0.24243156	      0.00423123	      8.43540072	     -0.32537626	     -7.49999987	     -5.16054160	      2.63088603	     -3.16923814	     -8.95773643	     -7.87879569	    -18.34914540	     11.76921730	     81.34519318	     18.94623547	    -12.04710142	     25.04560857	    123.76721083	     77.77501812
      4.40000000	      1.08530556	     -2.20118482	     -2.34349428	      0.86898580	      0.93461080	     -0.58191868	     -3.31260602	      0.18615506	      0.13523164	      7.11806996	      0.12423376	     12.91443465	     -3.39864567	     -7.49999987	     -5.43545477	     -4.62931873	      0.51734192	      0.23491423	      0.00410003	      8.50489354	     -0.37255055	     -7.49999987	     -4.86484147	      2.55678803	     -3.60634056	    -10.17163005	     -8.61299126	    -19.11207590	     10.63050368	     81.38169174	     19.73204889	    -11.76262773	     25.09281884	    125.72620034	     77.89733505
      4.41666670	      1.26825764	     -2.25729711	     -2.49411488	      0.86410966	      0.93463108	     -0.58640222	     -3.61123573	      0.25015738	      0.32041749	      6.93914286	      0.12111089	     12.88139811	     -3.41363229	     -7.49999987	     -5.71654239	     -4.69851679	      0.44549002	      0.22613068	      0.00394672	      8.61805035	     -0.28331011	     -7.49999987	     -4.85592169	      2.46491380	     -3.67646875	    -10.86523405	     -9.41708457	    -20.32819266	      9.83933145	     80.23403654	     21.82591563	    -11.13743727	     25.81591119	    126.64817762	     77.17097645
      4.43333330	      1.12599860	     -2.32325769	     -2.57442469	      0.86434264	      0.93460280	     -0.58648620	     -3.52215131	      0.33566038	      0.24885602	      6.84146844	      0.11940615	     12.88158241	     -3.28960024	     -7.49999987	     -5.60977653	     -4.78345515	      0.46834200	      0.22501266	      0.00392721	      8.69068698	     -0.30572288	     -7.49999987	     -4.20472624	      2.45222822	     -4.35364266	    -10.93487649	    -10.37613829	    -22.14879246	      8.24130429	     80.13630331	     22.76076291	    -10.49745974	     25.50952226	    127.70709609	     76.67271075
      4.45000000	      1.10077328	     -2.41566402	     -2.79759050	      0.86825957	      0.93050598	     -0.58185124	     -3.57728643	      0.47066453	      0.45461050	      6.71982571	      0.11728308	     12.80727697	     -3.48185642	     -7.49999987	     -5.65840746	     -4.88621153	      0.47913230	      0.22406626	      0.00391069	      8.65668057	     -0.60977810	     -7.49999987	     -3.76518299	      2.36274012	     -4.37405545	    -12.31072812	    -10.81683753	    -23.86014834	      9.01606583	     80.46978367	     24.17981628	    -10.06973427	     25.62524540	    128.81024982	     76.08497741
      4.46666670	      1.06233781	     -2.47426074	     -2.99854387	      0.86863839	      0.93032881	     -0.58165979	     -3.63234084	      0.54788342	      0.54073623	      6.59823876	      0.11516099	     12.83858190	     -3.36076293	     -7.49999987	     -5.70010166	     -4.96490809	      0.22654974	      0.22402262	      0.00390993	      8.76716385	     -0.39873505	     -7.49999987	     -3.33928100	      2.22445267	     -4.10121067	    -13.87822032	    -11.04334649	    -28.24829122	     10.72974289	     87.35556171	     25.49949044	     -9.86320043	     25.90767614	    129.67225318	     75.70545639
